<?xml version="1.0" encoding="utf-8"?>
<!-- Generator: Adobe Illustrator 25.2.3, SVG Export Plug-In . SVG Version: 6.00 Build 0)  -->
<svg version="1.1" id="Calque_1" xmlns="http://www.w3.org/2000/svg" xmlns:xlink="http://www.w3.org/1999/xlink" x="0px" y="0px"
	 viewBox="0 0 48 48" style="enable-background:new 0 0 48 48;" xml:space="preserve">
<path d="M26.83,24l8.59-8.59c0.78-0.78,0.78-2.05,0-2.83c-0.78-0.78-2.05-0.78-2.83,0L24,21.17l-8.59-8.59
	c-0.78-0.78-2.05-0.78-2.83,0c-0.78,0.78-0.78,2.05,0,2.83L21.17,24l-8.59,8.59c-0.78,0.78-0.78,2.05,0,2.83
	C12.98,35.8,13.49,36,14,36s1.02-0.2,1.41-0.59L24,26.83l8.59,8.59C32.98,35.8,33.49,36,34,36s1.02-0.2,1.41-0.59
	c0.78-0.78,0.78-2.05,0-2.83L26.83,24z"/>
</svg>
