<?xml version="1.0" encoding="utf-8"?>
<!-- Generator: Adobe Illustrator 25.2.3, SVG Export Plug-In . SVG Version: 6.00 Build 0)  -->
<svg version="1.1" id="Calque_1" xmlns="http://www.w3.org/2000/svg" xmlns:xlink="http://www.w3.org/1999/xlink" x="0px" y="0px"
	 viewBox="0 0 48 48" style="enable-background:new 0 0 48 48;" xml:space="preserve">
<style type="text/css">
	.st0{fill:#292929;}
</style>
<path class="st0" d="M39,24c0,1.1-0.9,2-2,2H26v11c0,1.1-0.9,2-2,2c-1.1,0-2-0.9-2-2V26H11c-1.1,0-2-0.9-2-2c0-1.1,0.9-2,2-2h11V11
	c0-1.1,0.9-2,2-2c1.1,0,2,0.9,2,2v11h11C38.1,22,39,22.9,39,24z"/>
</svg>
