<?xml version="1.0" encoding="utf-8"?>
<!-- Generator: Adobe Illustrator 25.2.3, SVG Export Plug-In . SVG Version: 6.00 Build 0)  -->
<svg version="1.1" id="Calque_1" xmlns="http://www.w3.org/2000/svg" xmlns:xlink="http://www.w3.org/1999/xlink" x="0px" y="0px"
	 viewBox="0 0 48 48" style="enable-background:new 0 0 48 48;" xml:space="preserve">
<path d="M43.93,37.77l-2.8-17.15c-0.4-2.46-2.52-4.28-5.14-4.56c0-0.02,0.01-0.04,0.01-0.06c0-6.62-5.38-12-12-12S12,9.38,12,16
	c0,0.02,0.01,0.04,0.01,0.06c-2.63,0.28-4.74,2.1-5.14,4.56l-2.8,17.14c-0.24,1.49,0.18,2.96,1.18,4.15C6.38,43.24,8.08,44,9.92,44
	h28.17c1.84,0,3.54-0.76,4.66-2.09C43.76,40.73,44.18,39.26,43.93,37.77z M24,8c4.41,0,8,3.59,8,8H16C16,11.59,19.59,8,24,8z
	 M39.7,39.32C39.34,39.75,38.74,40,38.08,40H9.92c-0.65,0-1.26-0.25-1.62-0.68c-0.17-0.19-0.35-0.51-0.28-0.91l2.8-17.14
	c0.12-0.71,0.95-1.27,1.9-1.27h22.57c0.95,0,1.79,0.56,1.9,1.26l2.8,17.15C40.05,38.81,39.87,39.13,39.7,39.32z"/>
</svg>
