<?xml version="1.0" encoding="utf-8"?>
<!-- Generator: Adobe Illustrator 25.2.3, SVG Export Plug-In . SVG Version: 6.00 Build 0)  -->
<svg version="1.1" id="Calque_1" xmlns="http://www.w3.org/2000/svg" xmlns:xlink="http://www.w3.org/1999/xlink" x="0px" y="0px"
	 viewBox="0 0 48 48" style="enable-background:new 0 0 48 48;" xml:space="preserve">
<style type="text/css">
	.st0{fill:#0CC276;}
</style>
<path class="st0" d="M44,25H31.6l11.98,3.21l-0.52,1.93l-11.98-3.21l10.74,6.2l-1,1.73l-10.74-6.2l8.77,8.77l-1.41,1.41l-8.77-8.77
	l6.2,10.74l-1.73,1l-6.2-10.74l3.21,11.98l-1.93,0.52L25,31.6V44h-2V31.6l-3.21,11.98l-1.93-0.52l3.21-11.98l-6.2,10.74l-1.73-1
	l6.2-10.74l-8.77,8.77l-1.41-1.41l8.77-8.77l-10.74,6.2l-1-1.73l10.74-6.2L4.94,30.14l-0.52-1.93L16.4,25H4v-2h12.4L4.42,19.79
	l0.52-1.93l11.98,3.21l-10.74-6.2l1-1.73l10.74,6.2l-8.77-8.77l1.41-1.41l8.77,8.77l-6.2-10.74l1.73-1l6.2,10.74L17.86,4.94
	l1.93-0.52L23,16.41V4h2v12.4l3.21-11.98l1.93,0.52l-3.21,11.98l6.2-10.74l1.73,1l-6.2,10.74l8.77-8.77l1.41,1.41l-8.77,8.77
	l10.74-6.2l1,1.73l-10.74,6.2l11.98-3.21l0.52,1.93L31.59,23H44V25z"/>
</svg>
