<?xml version="1.0" encoding="utf-8"?>
<!-- Generator: Adobe Illustrator 25.2.3, SVG Export Plug-In . SVG Version: 6.00 Build 0)  -->
<svg version="1.1" id="Calque_1" xmlns="http://www.w3.org/2000/svg" xmlns:xlink="http://www.w3.org/1999/xlink" x="0px" y="0px"
	 viewBox="0 0 48 48" style="enable-background:new 0 0 48 48;" xml:space="preserve">
<path d="M26.83,24l12.59-12.59c0.78-0.78,0.78-2.05,0-2.83c-0.78-0.78-2.05-0.78-2.83,0L24,21.17L11.41,8.59
	c-0.78-0.78-2.05-0.78-2.83,0c-0.78,0.78-0.78,2.05,0,2.83L21.17,24L8.59,36.59c-0.78,0.78-0.78,2.05,0,2.83
	C8.98,39.8,9.49,40,10,40s1.02-0.2,1.41-0.59L24,26.83l12.59,12.59C36.98,39.8,37.49,40,38,40s1.02-0.2,1.41-0.59
	c0.78-0.78,0.78-2.05,0-2.83L26.83,24z"/>
</svg>
